<svg xmlns="http://www.w3.org/2000/svg" viewBox="0 0 290 290">
    <circle cx="145" cy="145" r="140" fill="#FFF" stroke="#000" stroke-width="10" />
    <path d="M70.464 127.058c0 .345-.06.651-.18.921s-.281.494-.483.674-.442.311-.719.393a2.955 2.955 0 0 1-.842.124h-2.516c-.524 0-.977-.052-1.359-.157a2.683 2.683 0 0 1-1.056-.573c-.322-.277-.633-.651-.932-1.123-.3-.472-.637-1.082-1.011-1.831l-7.232-13.589a66.783 66.783 0 0 1-1.28-2.617 46.467 46.467 0 0 1-1.168-2.729h-.045a118.376 118.376 0 0 1 .18 6.536v15.206c0 .15-.042.285-.124.404-.083.12-.225.221-.427.303a3.381 3.381 0 0 1-.82.191c-.345.045-.786.067-1.325.067-.524 0-.958-.022-1.303-.067-.345-.045-.614-.108-.809-.191-.195-.082-.33-.183-.404-.303a.745.745 0 0 1-.112-.404v-26.122c0-.704.206-1.231.618-1.583.412-.352.917-.528 1.516-.528h3.167c.569 0 1.048.049 1.438.146.389.098.737.258 1.044.483.307.225.595.536.865.932.27.397.546.887.831 1.471l5.66 10.624c.329.644.655 1.277.977 1.898.322.622.632 1.243.932 1.864.299.622.591 1.232.876 1.831.284.599.562 1.198.831 1.797h.022a139.207 139.207 0 0 1-.101-3.279 169.088 169.088 0 0 1-.034-3.257v-13.634c0-.149.045-.284.135-.404.09-.12.239-.225.449-.314.209-.09.486-.153.831-.191.344-.037.786-.056 1.325-.056.509 0 .936.019 1.28.056.344.038.61.101.797.191.187.09.318.195.393.314.075.12.112.255.112.404v26.122zm32.478-12.802c0 2.411-.3 4.567-.898 6.469-.599 1.902-1.49 3.515-2.673 4.84-1.183 1.325-2.647 2.336-4.391 3.032-1.745.696-3.762 1.044-6.053 1.044-2.261 0-4.234-.296-5.918-.887s-3.088-1.494-4.211-2.707-1.965-2.755-2.527-4.627c-.562-1.872-.842-4.088-.842-6.648 0-2.351.299-4.466.898-6.345.599-1.879 1.49-3.478 2.673-4.795 1.183-1.317 2.646-2.328 4.391-3.032 1.744-.704 3.77-1.056 6.076-1.056 2.201 0 4.144.292 5.829.876s3.092 1.482 4.223 2.695c1.13 1.213 1.984 2.744 2.561 4.593.574 1.85.862 4.032.862 6.548zm-6.199.314c0-1.527-.12-2.916-.359-4.167-.24-1.25-.648-2.321-1.224-3.212a5.841 5.841 0 0 0-2.302-2.066c-.958-.486-2.156-.73-3.594-.73-1.453 0-2.666.273-3.639.82a6.685 6.685 0 0 0-2.358 2.19c-.599.914-1.022 1.98-1.269 3.201a19.51 19.51 0 0 0-.371 3.875c0 1.587.12 3.014.359 4.279.239 1.266.644 2.347 1.213 3.246a5.581 5.581 0 0 0 2.291 2.055c.958.472 2.164.708 3.616.708s2.665-.27 3.639-.809a6.52 6.52 0 0 0 2.358-2.201c.599-.928 1.022-2.01 1.269-3.246s.371-2.55.371-3.943zm27.492 13.746c0 .15-.049.285-.146.404-.098.12-.258.217-.483.292a4.712 4.712 0 0 1-.898.18c-.375.045-.854.067-1.438.067-.569 0-1.044-.022-1.426-.067s-.685-.104-.91-.18c-.225-.075-.386-.172-.483-.292a.62.62 0 0 1-.146-.404v-27.447c0-.149.048-.284.146-.404.097-.12.262-.217.494-.292.232-.075.535-.135.91-.18a12.23 12.23 0 0 1 1.415-.067c.584 0 1.063.022 1.438.067.374.045.674.105.898.18.225.075.385.172.483.292.097.12.146.255.146.404v27.447zm40.205 0c0 .15-.042.285-.124.404-.083.12-.232.217-.449.292-.217.075-.505.135-.865.18s-.816.067-1.37.067c-.539 0-.988-.022-1.348-.067s-.644-.104-.854-.18c-.21-.075-.359-.172-.449-.292a.655.655 0 0 1-.135-.404v-23.651h-.045l-8.423 23.629c-.06.195-.157.356-.292.483a1.42 1.42 0 0 1-.55.303c-.232.075-.528.124-.887.146s-.794.034-1.303.034c-.509 0-.943-.019-1.303-.056a3.914 3.914 0 0 1-.887-.18 1.636 1.636 0 0 1-.55-.303.868.868 0 0 1-.27-.427l-8.131-23.629h-.045v23.651c0 .15-.042.285-.124.404-.083.12-.236.217-.46.292a4.673 4.673 0 0 1-.865.18c-.352.045-.805.067-1.359.067-.539 0-.988-.022-1.348-.067s-.648-.104-.865-.18c-.217-.075-.367-.172-.449-.292a.692.692 0 0 1-.124-.404v-25.897c0-.764.202-1.348.606-1.752s.943-.606 1.617-.606h3.863c.688 0 1.28.056 1.774.168s.921.3 1.28.562c.359.262.659.606.898 1.033.239.427.449.955.629 1.583l6.289 17.317h.09l6.514-17.272a9.13 9.13 0 0 1 .64-1.595c.232-.434.501-.786.809-1.056.307-.27.67-.46 1.089-.573a5.684 5.684 0 0 1 1.46-.168h3.976c.404 0 .752.053 1.044.157.292.105.531.258.719.46.187.202.329.449.427.741.097.292.146.625.146 1v25.898zm30.143-1.392c.18.539.292.966.337 1.28.045.314-.015.55-.18.708-.165.157-.457.254-.876.292-.419.037-.996.056-1.729.056-.764 0-1.359-.011-1.786-.034s-.752-.067-.977-.135-.382-.161-.472-.281a1.537 1.537 0 0 1-.225-.472l-1.954-5.84h-10.916l-1.842 5.683c-.06.21-.139.386-.236.528-.098.143-.255.255-.472.337-.217.082-.524.138-.921.168s-.917.045-1.561.045c-.689 0-1.228-.022-1.617-.067-.39-.045-.659-.153-.809-.326-.15-.172-.202-.416-.157-.73.045-.314.157-.733.337-1.258l8.962-25.785c.09-.254.194-.46.314-.618.12-.157.311-.277.573-.359.262-.082.625-.135 1.089-.157a40.486 40.486 0 0 1 1.842-.034c.883 0 1.587.011 2.111.034.524.022.932.075 1.224.157.292.083.501.206.629.371.127.165.236.39.326.674l8.986 25.763zm-13.342-21.316h-.022l-4.11 12.354h8.243l-4.111-12.354zm40.16-1.033c0 .435-.019.809-.056 1.123-.038.314-.09.565-.157.752-.067.188-.15.318-.247.393a.554.554 0 0 1-.348.112c-.195 0-.509-.135-.943-.404-.435-.27-1.011-.562-1.729-.876s-1.576-.606-2.572-.876-2.153-.404-3.47-.404c-1.408 0-2.681.244-3.818.73a8.314 8.314 0 0 0-2.92 2.066c-.809.891-1.43 1.962-1.864 3.212-.435 1.25-.651 2.632-.651 4.144 0 1.662.221 3.126.663 4.391.441 1.266 1.059 2.325 1.853 3.178a7.622 7.622 0 0 0 2.864 1.932c1.115.435 2.347.651 3.695.651.659 0 1.31-.075 1.954-.225a7.13 7.13 0 0 0 1.797-.674v-6.738h-5.503c-.27 0-.479-.168-.629-.505-.15-.337-.225-.91-.225-1.718 0-.419.019-.771.056-1.056a2.59 2.59 0 0 1 .168-.685.968.968 0 0 1 .27-.382.567.567 0 0 1 .359-.124h9.815c.239 0 .453.042.64.124.187.083.352.206.494.371.142.165.25.363.326.595.075.232.112.498.112.797v11.567c0 .449-.079.842-.236 1.179s-.479.603-.966.797c-.487.195-1.089.397-1.808.606-.719.21-1.464.39-2.235.539a24.646 24.646 0 0 1-4.706.449c-2.321 0-4.399-.333-6.233-1-1.834-.666-3.388-1.632-4.661-2.897-1.273-1.265-2.246-2.808-2.92-4.627s-1.011-3.882-1.011-6.188c0-2.381.359-4.518 1.078-6.413.719-1.894 1.737-3.504 3.055-4.829 1.317-1.325 2.909-2.339 4.773-3.043 1.864-.704 3.942-1.056 6.233-1.056 1.258 0 2.403.086 3.437.258a19.43 19.43 0 0 1 2.707.629c.771.247 1.411.513 1.92.797.509.285.865.532 1.067.741.202.21.348.505.438.887s.134.951.134 1.7zm23.225 22.236c0 .435-.019.797-.056 1.089a2.88 2.88 0 0 1-.168.708.895.895 0 0 1-.281.393.61.61 0 0 1-.371.124h-14.6c-.494 0-.91-.146-1.247-.438s-.505-.767-.505-1.426v-25.336c0-.659.168-1.134.505-1.426s.752-.438 1.247-.438h14.51c.135 0 .254.038.359.112.104.075.194.206.27.393.075.188.131.427.168.719.037.292.056.663.056 1.112 0 .419-.019.775-.056 1.067a2.88 2.88 0 0 1-.168.708.95.95 0 0 1-.27.393.563.563 0 0 1-.359.124h-10.377v7.098h8.782c.135 0 .258.042.371.124.112.083.206.21.281.382.075.172.131.404.168.696.037.292.056.648.056 1.067 0 .435-.019.794-.056 1.078a2.66 2.66 0 0 1-.168.685.823.823 0 0 1-.281.371.653.653 0 0 1-.371.112h-8.782v8.198h10.467c.135 0 .258.042.371.124a.909.909 0 0 1 .281.393c.075.18.131.416.168.708.037.289.056.652.056 1.086zM69.273 182.124c.18.539.292.965.337 1.28s-.015.551-.18.708c-.165.157-.457.254-.876.292-.419.037-.996.056-1.729.056-.764 0-1.359-.011-1.786-.033s-.752-.067-.977-.135-.382-.161-.472-.281a1.515 1.515 0 0 1-.225-.472l-1.954-5.839H50.496l-1.842 5.682c-.06.21-.139.386-.236.528-.098.143-.255.255-.472.337-.217.082-.524.138-.921.168s-.917.045-1.561.045c-.689 0-1.228-.022-1.617-.067-.39-.045-.659-.153-.809-.325-.15-.172-.202-.416-.157-.73s.157-.733.337-1.257l8.962-25.785c.09-.254.194-.46.314-.618.12-.157.311-.277.573-.359.262-.082.625-.135 1.089-.157a40.486 40.486 0 0 1 1.842-.034c.883 0 1.587.011 2.111.034.524.022.932.075 1.224.157.292.083.501.206.629.371.127.165.236.39.326.674l8.985 25.76zm-13.342-21.316h-.022l-4.11 12.354h8.243l-4.111-12.354zm29.514 22.483a1.891 1.891 0 0 1-.292.618c-.12.157-.314.277-.584.359s-.637.135-1.101.157a40.09 40.09 0 0 1-1.819.033c-.599 0-1.112-.004-1.539-.011a13.27 13.27 0 0 1-1.089-.057c-.3-.03-.543-.074-.73-.135a1.713 1.713 0 0 1-.472-.225c-.127-.09-.225-.198-.292-.325s-.131-.288-.191-.483l-8.647-25.762c-.18-.539-.289-.966-.326-1.28-.038-.314.037-.55.225-.708.187-.157.505-.254.955-.292a24.428 24.428 0 0 1 1.887-.056c.688 0 1.228.015 1.617.045s.688.083.898.157c.209.075.355.188.438.337.082.15.161.337.236.562l7.075 22.416h.022l6.94-22.304c.06-.254.135-.46.225-.618s.243-.281.46-.371c.217-.09.528-.149.932-.18.404-.03.958-.045 1.662-.045.688 0 1.224.022 1.606.067s.644.154.786.326c.142.172.187.416.135.73-.053.314-.168.734-.348 1.258l-8.669 25.787zm34.096-1.167c.18.539.292.965.337 1.28s-.015.551-.18.708c-.165.157-.457.254-.876.292-.419.037-.996.056-1.729.056-.764 0-1.359-.011-1.786-.033s-.752-.067-.977-.135-.382-.161-.472-.281a1.515 1.515 0 0 1-.225-.472l-1.954-5.839h-10.916l-1.842 5.682c-.06.21-.139.386-.236.528-.098.143-.255.255-.472.337-.217.082-.524.138-.921.168s-.917.045-1.561.045c-.689 0-1.228-.022-1.617-.067-.39-.045-.659-.153-.809-.325-.15-.172-.202-.416-.157-.73s.157-.733.337-1.257l8.962-25.785c.09-.254.194-.46.314-.618.12-.157.311-.277.573-.359.262-.082.625-.135 1.089-.157a40.486 40.486 0 0 1 1.842-.034c.883 0 1.587.011 2.111.034.524.022.932.075 1.224.157.292.083.501.206.629.371.127.165.236.39.326.674l8.986 25.76zm-13.342-21.316h-.022l-4.11 12.354h8.243l-4.111-12.354zm23.337 22.708c0 .15-.049.285-.146.404-.098.12-.258.218-.483.292a4.712 4.712 0 0 1-.898.18c-.375.045-.854.067-1.438.067-.569 0-1.044-.022-1.426-.067s-.685-.104-.91-.18c-.225-.074-.386-.172-.483-.292a.618.618 0 0 1-.146-.404v-27.447c0-.149.048-.284.146-.404.097-.12.262-.217.494-.292.232-.075.535-.135.91-.18a12.23 12.23 0 0 1 1.415-.067c.584 0 1.063.022 1.438.067.374.045.674.105.898.18.225.075.385.172.483.292.097.12.146.255.146.404v27.447zm22.304-1.662c0 .449-.019.828-.056 1.134a3.516 3.516 0 0 1-.168.764c-.075.202-.168.348-.281.438s-.244.135-.393.135h-13.319c-.494 0-.91-.146-1.247-.438s-.505-.768-.505-1.426v-26.392c0-.149.048-.284.146-.404.097-.12.258-.217.483-.292.225-.075.528-.135.91-.18s.857-.067 1.426-.067c.584 0 1.063.022 1.438.067.374.045.674.105.898.18.225.075.385.172.483.292.097.12.146.255.146.404v23.382h9.142a.65.65 0 0 1 .393.124c.112.083.206.217.281.404.075.188.131.435.168.741.036.307.055.685.055 1.134zm27.29.27c.18.539.292.965.337 1.28s-.015.551-.18.708c-.165.157-.457.254-.876.292-.419.037-.996.056-1.729.056-.764 0-1.359-.011-1.786-.033s-.752-.067-.977-.135-.382-.161-.472-.281a1.515 1.515 0 0 1-.225-.472l-1.954-5.839h-10.916l-1.842 5.682c-.06.21-.139.386-.236.528-.098.143-.255.255-.472.337-.217.082-.524.138-.921.168s-.917.045-1.561.045c-.689 0-1.228-.022-1.617-.067-.39-.045-.659-.153-.809-.325-.15-.172-.202-.416-.157-.73s.157-.733.337-1.257l8.962-25.785c.09-.254.194-.46.314-.618.12-.157.311-.277.573-.359.262-.082.625-.135 1.089-.157a40.486 40.486 0 0 1 1.842-.034c.883 0 1.587.011 2.111.034.524.022.932.075 1.224.157.292.083.501.206.629.371.127.165.236.39.326.674l8.986 25.76zm-13.342-21.316h-.022l-4.11 12.354h8.243l-4.111-12.354zm38.453 14.802c0 1.033-.143 1.969-.427 2.808a7.535 7.535 0 0 1-1.179 2.224 7.618 7.618 0 0 1-1.797 1.662c-.696.464-1.464.846-2.302 1.145-.839.3-1.733.521-2.684.663-.951.143-2.01.213-3.178.213h-7.727c-.494 0-.91-.146-1.247-.438s-.505-.768-.505-1.426v-25.336c0-.659.168-1.134.505-1.426s.752-.438 1.247-.438h7.3c1.782 0 3.291.15 4.526.449 1.235.3 2.276.752 3.122 1.359a6.014 6.014 0 0 1 1.943 2.302c.449.929.674 2.021.674 3.279 0 .704-.09 1.367-.27 1.988a5.969 5.969 0 0 1-.786 1.696 5.89 5.89 0 0 1-1.269 1.348 6.43 6.43 0 0 1-1.718.943c.823.15 1.583.412 2.28.786a6.448 6.448 0 0 1 1.819 1.449 6.749 6.749 0 0 1 1.224 2.078c.299.793.449 1.684.449 2.672zm-7.637-12.241c0-.584-.09-1.108-.27-1.572a2.842 2.842 0 0 0-.809-1.157c-.359-.307-.813-.542-1.359-.708-.547-.165-1.277-.247-2.19-.247h-2.987v7.547h3.302c.854 0 1.535-.101 2.044-.303a3.529 3.529 0 0 0 1.269-.831c.337-.352.587-.764.752-1.235a4.47 4.47 0 0 0 .248-1.494zm1.505 12.443c0-.674-.112-1.276-.337-1.808a3.455 3.455 0 0 0-.988-1.336c-.435-.359-.988-.636-1.662-.831-.674-.194-1.55-.292-2.628-.292h-3.504v8.266h4.268c.823 0 1.516-.086 2.078-.258a4.233 4.233 0 0 0 1.46-.764c.412-.337.733-.756.966-1.258.231-.502.347-1.075.347-1.719zm26.841 6.042c0 .449-.019.828-.056 1.134a3.516 3.516 0 0 1-.168.764c-.075.202-.168.348-.281.438s-.244.135-.393.135h-13.319c-.494 0-.91-.146-1.247-.438s-.505-.768-.505-1.426v-26.392c0-.149.048-.284.146-.404.097-.12.258-.217.483-.292.225-.075.528-.135.91-.18s.857-.067 1.426-.067c.584 0 1.063.022 1.438.067.374.045.674.105.898.18.225.075.385.172.483.292.097.12.146.255.146.404v23.382h9.142a.65.65 0 0 1 .393.124c.112.083.206.217.281.404.075.188.131.435.168.741.036.307.055.685.055 1.134zm20.709.157c0 .435-.019.797-.056 1.089a2.87 2.87 0 0 1-.168.707c-.075.18-.168.312-.281.394s-.236.123-.371.123h-14.6c-.494 0-.91-.146-1.247-.438s-.505-.768-.505-1.426v-25.336c0-.659.168-1.134.505-1.426s.752-.438 1.247-.438h14.51c.135 0 .254.038.359.112.104.075.194.206.27.393.075.188.131.427.168.719.037.292.056.663.056 1.112 0 .419-.019.775-.056 1.067a2.88 2.88 0 0 1-.168.708.95.95 0 0 1-.27.393.563.563 0 0 1-.359.124h-10.377v7.098h8.782c.135 0 .258.042.371.124.112.083.206.21.281.382.075.172.131.404.168.696.037.292.056.648.056 1.067 0 .435-.019.794-.056 1.078a2.66 2.66 0 0 1-.168.685.823.823 0 0 1-.281.371.653.653 0 0 1-.371.112h-8.782v8.198h10.467c.135 0 .258.042.371.124a.909.909 0 0 1 .281.393c.075.18.131.416.168.708.037.29.056.653.056 1.087z" />
</svg>
